<svg width="1633" height="1165" viewBox="0 0 1633 1165" fill="none" xmlns="http://www.w3.org/2000/svg">
<path d="M1631.5 116C1476.5 197 1209.21 518.803 1048.42 403.904C970.319 348.092 987.616 282.194 1029.78 248C995.619 303.124 1039.44 380.582 1084 392.5C1261.58 440 1484 134.5 1631.5 79V116Z" fill="#EFC0FF" stroke="#EFC0FF" stroke-width="2" stroke-linecap="round"/>
<path d="M1631.5 78C1497.5 122 1260.5 434 1097 396C1036.64 381.971 999.5 310.5 1029 249C1013 317 1062.23 364.816 1108 370.5C1261 389.5 1493 89.5 1631.5 41V78Z" fill="#E8A4FF" stroke="#E8A4FF" stroke-width="2" stroke-linecap="round"/>
<path d="M1631.83 39C1497.82 83 1295.39 358.034 1128 370.5C1081 374 1015 334.5 1030 248C1045.5 315.5 1072.45 338.382 1118.5 341C1268 349.5 1493.32 50.5 1631.83 2V39Z" fill="#E187FF" stroke="#E187FF" stroke-width="2" stroke-linecap="round"/>
<path d="M1160.5 267.194C1351.4 614.828 193.046 862.932 2 1163.5L76 1153.79C311.193 876.412 1214 671.29 1214 343.79C1214 260.745 1140.55 170.499 1062 218.29C1048.18 226.698 1038.04 236.768 1030.99 247.79C1070.45 218.7 1131.56 214.5 1160.5 267.194Z" fill="#ECDDFF" stroke="#ECDDFF" stroke-width="2" stroke-linecap="round"/>
<path d="M1192 262C1384.5 634.5 300 869.5 79 1153.5L153 1143.79C407.5 884 1223.77 686.459 1255.5 360.5C1268.84 223.5 1126 94 1028.5 247.5C1086.5 171 1162.8 205.5 1192 262Z" fill="#D9BAFF" stroke="#D9BAFF" stroke-width="2" stroke-linecap="round"/>
<path d="M1192 262C1384.5 634.5 300 869.5 79 1153.5L153 1143.79C407.5 884 1223.77 686.459 1255.5 360.5C1268.84 223.5 1126 94 1028.5 247.5C1086.5 171 1162.8 205.5 1192 262Z" fill="#D9BAFF" stroke="#D9BAFF" stroke-width="2" stroke-linecap="round"/>
<path d="M1235.5 250.5C1434.5 646.5 269.5 927.5 159 1143.5L252.5 1134C356 926.5 1276 742 1304.5 330C1314.36 187.434 1110.5 48 1027 250.5C1109 120 1207.49 194.753 1235.5 250.5Z" fill="#C191FF" stroke="#C191FF" stroke-width="2" stroke-linecap="round"/>
</svg>
